<svg viewBox="0 0 64 64" xml:space="preserve" xmlns="http://www.w3.org/2000/svg" enable-background="new 0 0 64 64"><path d="M56.262 17.837H26.748c-.961 0-1.508.743-1.223 1.661l4.669 13.677c.23.738 1.044 1.336 1.817 1.336h19.35c.773 0 1.586-.598 1.815-1.336l4.069-14c.231-.738-.209-1.338-.983-1.338z" fill="#ffffff" class="fill-000000"></path><circle cx="29.417" cy="50.267" r="4.415" fill="#ffffff" class="fill-000000"></circle><circle cx="48.099" cy="50.323" r="4.415" fill="#ffffff" class="fill-000000"></circle><path d="M53.4 39.004H27.579L17.242 9.261H9.193a2.5 2.5 0 1 0 0 5h4.493l10.337 29.743H53.4a2.5 2.5 0 1 0 0-5z" fill="#ffffff" class="fill-000000"></path></svg>