<svg data-name="Layer 1" viewBox="0 0 64 64" xmlns="http://www.w3.org/2000/svg"><path d="M46.922 15H41v1.141a.86.86 0 0 1-.859.859H24.859a.86.86 0 0 1-.859-.859V15h-5.922A2.052 2.052 0 0 0 16 17.026v34.948A2.052 2.052 0 0 0 18.078 54h28.844A2.052 2.052 0 0 0 49 51.974V17.026A2.052 2.052 0 0 0 46.922 15Z" fill="none" stroke="#ffffff" stroke-miterlimit="10" stroke-width="2px" class="stroke-000000"></path><path d="M39.984 13H35v-.372a2.529 2.529 0 0 0-1.88-2.488A2.491 2.491 0 0 0 30 12.511V13h-4.984A1.016 1.016 0 0 0 24 14.016v1.968A1.016 1.016 0 0 0 25.016 17h14.968A1.016 1.016 0 0 0 41 15.984v-1.968A1.016 1.016 0 0 0 39.984 13ZM25 24h18M19 23l1 1 3-4M25 32h18M19 31l1 1 3-4M25 40h18M19 39l1 1 3-4M25 48h18M19 47l1 1 3-4" fill="none" stroke="#ffffff" stroke-linecap="round" stroke-miterlimit="10" stroke-width="2px" class="stroke-000000"></path></svg>